<?xml version="1.0" encoding="UTF-8"?>
<svg width="1920" height="1080" style="height:100%;width:100%" ng-trianglify-animate=""
    preserveAspectRatio="xMidYMid slice" viewBox="0 0 1280 683" xmlns="http://www.w3.org/2000/svg">
    <path d="m64 816.29-157-11.697 375-56.918z" fill="#d9e3ea" stroke="#d9e3ea" stroke-width="1.51" />
    <path d="m409-72.056 95 29.302 358-156.25z" fill="#96adc1" stroke="#96adc1" stroke-width="1.51" />
    <path d="m270-168.04 139 95.984 453-126.95z" fill="#94acc1" stroke="#94acc1" stroke-width="1.51" />
    <path d="m691 784.47-217 29.278 446 54.247z" fill="#d8e2e9" stroke="#d8e2e9" stroke-width="1.51" />
    <path d="m815 814.39-124-29.915 229 83.525z" fill="#d8e2e9" stroke="#d8e2e9" stroke-width="1.51" />
    <path d="m270-168.04 592-30.967 143 118.02z" fill="#94acc0" stroke="#94acc0" stroke-width="1.51" />
    <path d="m1124 712.49-124 161.55 212-167.27z" fill="#dde5ec" stroke="#dde5ec" stroke-width="1.51" />
    <path d="m1e3 874.04-80-6.0403 350-121.04z" fill="#dae4ea" stroke="#dae4ea" stroke-width="1.51" />
    <path d="m1212 706.77-212 167.27 270-127.08z" fill="#dce5eb" stroke="#dce5eb" stroke-width="1.51" />
    <path d="m1359 216.3 19 87.184 2-162.22z" fill="#c6d3de" stroke="#c6d3de" stroke-width="1.51" />
    <path d="m1005-80.989 150 18.239 236-77.923z" fill="#97aec2" stroke="#97aec2" stroke-width="1.51" />
    <path d="m1155-62.751 154-48.705 82-29.218z" fill="#98afc3" stroke="#98afc3" stroke-width="1.51" />
    <path d="m1309-111.46 59 36.993 23-66.212z" fill="#9cb2c5" stroke="#9cb2c5" stroke-width="1.51" />
    <path d="m1270 746.96-350 121.04 481-85.118z" fill="#dce5eb" stroke="#dce5eb" stroke-width="1.51" />
    <path d="m1378 303.48-119 179.21 151 95.951z" fill="#e9eef3" stroke="#e9eef3" stroke-width="1.51" />
    <path d="m1372 615.99 29 166.89 9-204.24z" fill="#e8edf2" stroke="#e8edf2" stroke-width="1.51" />
    <path d="m1370 508.58 2 107.41 38-37.347z" fill="#edf1f6" stroke="#edf1f6" stroke-width="1.51" />
    <path d="m1311 85.681 69 55.576 39-14.587z" fill="#acbfcf" stroke="#acbfcf" stroke-width="1.51" />
    <path d="m1368-74.462-57 160.14 108 40.99z" fill="#a6bbcb" stroke="#a6bbcb" stroke-width="1.51" />
    <path d="m1391-140.67-23 66.212 51 201.13z" fill="#a0b6c8" stroke="#a0b6c8" stroke-width="1.51" />
    <path d="m1378 303.48 32 275.16 9-451.97z" fill="#cfdae3" stroke="#cfdae3" stroke-width="1.51" />
    <path d="m1380 141.26-2 162.22 41-176.81z" fill="#b9c9d7" stroke="#b9c9d7" stroke-width="1.51" />
    <path d="m1370 508.58-56 98.519 58 8.8899z" fill="#ebf0f4" stroke="#ebf0f4" stroke-width="1.51" />
    <path d="m1277 328.03-18 154.66 119-179.21z" fill="#dfe6ed" stroke="#dfe6ed" stroke-width="1.51" />
    <path d="m1259 482.69 111 25.888 40 70.063z" fill="#f4f6f9" stroke="#f4f6f9" stroke-width="1.51" />
    <path d="m1372 615.99-102 130.97 131 35.922z" fill="#e0e8ee" stroke="#e0e8ee" stroke-width="1.51" />
    <path d="m1259 482.69 55 124.41 56-98.519z" fill="#f1f5f8" stroke="#f1f5f8" stroke-width="1.51" />
    <path d="m1278 637.45-8 109.51 102-130.97z" fill="#e2e9ef" stroke="#e2e9ef" stroke-width="1.51" />
    <path d="m1359 216.3-90 86.346 109 0.83756z" fill="#ced9e3" stroke="#ced9e3" stroke-width="1.51" />
    <path d="m1311 85.681-57 136.41 126-80.831z" fill="#afc2d1" stroke="#afc2d1" stroke-width="1.51" />
    <path d="m1314 607.1-36 30.354 94-21.464z" fill="#e7edf2" stroke="#e7edf2" stroke-width="1.51" />
    <path d="m1269 302.64 8 25.389 101-24.551z" fill="#d5dfe7" stroke="#d5dfe7" stroke-width="1.51" />
    <path d="m1254 222.09 105-5.7905 21-75.04z" fill="#b9c9d7" stroke="#b9c9d7" stroke-width="1.51" />
    <path d="m1259 482.69-32 83.646 87 40.762z" fill="#f1f4f8" stroke="#f1f4f8" stroke-width="1.51" />
    <path d="m1260-16.114 51 101.8 57-160.14z" fill="#a3b9c9" stroke="#a3b9c9" stroke-width="1.51" />
    <path d="m1309-111.46-49 95.341 108-58.348z" fill="#9db4c6" stroke="#9db4c6" stroke-width="1.51" />
    <path d="m1254 222.09 15 80.556 90-86.346z" fill="#c0d0db" stroke="#c0d0db" stroke-width="1.51" />
    <path d="m504-42.754 75 20.116 283-176.37z" fill="#97aec2" stroke="#97aec2" stroke-width="1.51" />
    <path d="m1254 222.09-57-51.833 72 132.39z" fill="#bdcdd9" stroke="#bdcdd9" stroke-width="1.51" />
    <path d="m1260-16.114-78 50.697 129 51.098z" fill="#a4b9ca" stroke="#a4b9ca" stroke-width="1.51" />
    <path d="m1182 34.583-7 97.792 136-46.694z" fill="#a7bbcb" stroke="#a7bbcb" stroke-width="1.51" />
    <path d="m1227 566.34 51 71.116 36-30.354z" fill="#ebf0f4" stroke="#ebf0f4" stroke-width="1.51" />
    <path d="m1155-62.751 105 46.636 49-95.341z" fill="#9ab1c4" stroke="#9ab1c4" stroke-width="1.51" />
    <path d="m1175 132.37 79 89.713 57-136.41z" fill="#abbfcf" stroke="#abbfcf" stroke-width="1.51" />
    <path d="m1178 491.57 49 74.766 32-83.646z" fill="#f2f5f8" stroke="#f2f5f8" stroke-width="1.51" />
    <path d="m1197 170.25-42 202.99 114-70.606z" fill="#c7d4de" stroke="#c7d4de" stroke-width="1.51" />
    <path d="m1178 491.57 81-8.8796 18-154.66z" fill="#e5ebf0" stroke="#e5ebf0" stroke-width="1.51" />
    <path d="m1155 417.25 23 74.32 99-163.54z" fill="#dee6ec" stroke="#dee6ec" stroke-width="1.51" />
    <path d="m1269 302.64-114 114.61 122-89.217z" fill="#d5dee7" stroke="#d5dee7" stroke-width="1.51" />
    <path d="m1227 566.34-59 220.69 110-149.58z" fill="#e7ecf1" stroke="#e7ecf1" stroke-width="1.51" />
    <path d="m1212 706.77 58 40.189 8-109.51z" fill="#e0e7ee" stroke="#e0e7ee" stroke-width="1.51" />
    <path d="m1168 787.03 44-80.258 66-69.319z" fill="#e1e8ee" stroke="#e1e8ee" stroke-width="1.51" />
    <path d="m1155 373.25v44l114-114.61z" fill="#d0dbe4" stroke="#d0dbe4" stroke-width="1.51" />
    <path d="m1175 132.37 22 37.88 57 51.833z" fill="#afc2d1" stroke="#afc2d1" stroke-width="1.51" />
    <path d="m1155-62.751 27 97.333 78-50.697z" fill="#9db3c6" stroke="#9db3c6" stroke-width="1.51" />
    <path d="m24 761.43-117 43.171 157 11.697z" fill="#dbe3ea" stroke="#dbe3ea" stroke-width="1.51" />
    <path d="m1175 132.37-85 84.168 107-46.288z" fill="#aec1d0" stroke="#aec1d0" stroke-width="1.51" />
    <path d="m1178 491.57-76 91.182 125-16.416z" fill="#f2f5f8" stroke="#f2f5f8" stroke-width="1.51" />
    <path d="m1102 582.75 66 204.28 59-220.69z" fill="#ebf0f4" stroke="#ebf0f4" stroke-width="1.51" />
    <path d="m1102 582.75-38 151.54 104 52.734z" fill="#e7ecf1" stroke="#e7ecf1" stroke-width="1.51" />
    <path d="m1155-62.751-81 110.34 108-13.003z" fill="#9eb4c6" stroke="#9eb4c6" stroke-width="1.51" />
    <path d="m1168 787.03-44-74.539 88-5.7194z" fill="#dfe7ed" stroke="#dfe7ed" stroke-width="1.51" />
    <path d="m1084 561.58 18 21.171 76-91.182z" fill="#f4f6f9" stroke="#f4f6f9" stroke-width="1.51" />
    <path d="m1098 321.29 57 51.957 42-202.99z" fill="#c5d2dd" stroke="#c5d2dd" stroke-width="1.51" />
    <path d="m1090 216.54 8 104.75 99-151.04z" fill="#b9cad7" stroke="#b9cad7" stroke-width="1.51" />
    <path d="m1053 365.2 31 196.38 71-144.33z" fill="#dfe7ed" stroke="#dfe7ed" stroke-width="1.51" />
    <path d="m1090 169.54v47l85-84.168z" fill="#abbece" stroke="#abbece" stroke-width="1.51" />
    <path d="m1155 417.25-71 144.33 94-70.011z" fill="#e6ebf0" stroke="#e6ebf0" stroke-width="1.51" />
    <path d="m1090 169.54 85-37.168 7-97.792z" fill="#a7bbcc" stroke="#a7bbcc" stroke-width="1.51" />
    <path d="m1074 47.586 16 121.96 92-134.96z" fill="#a4b9ca" stroke="#a4b9ca" stroke-width="1.51" />
    <path d="m1061-68.188 13 115.77 81-110.34z" fill="#9ab1c4" stroke="#9ab1c4" stroke-width="1.51" />
    <path d="m1005-80.989 56 12.802 94 5.4371z" fill="#97aec2" stroke="#97aec2" stroke-width="1.51" />
    <path d="m1064 734.29 60-21.804 44 74.539z" fill="#e1e8ee" stroke="#e1e8ee" stroke-width="1.51" />
    <path d="m1155 373.25-57-51.957 57 95.957z" fill="#cedae3" stroke="#cedae3" stroke-width="1.51" />
    <path d="m1098 321.29-45 43.91 102 52.047z" fill="#d2dde5" stroke="#d2dde5" stroke-width="1.51" />
    <path d="m1090 216.54-95 46.113 103 58.637z" fill="#b7c8d6" stroke="#b7c8d6" stroke-width="1.51" />
    <path d="m996 734.43 68-0.13181 38-151.54z" fill="#e8eef2" stroke="#e8eef2" stroke-width="1.51" />
    <path d="m1064 734.29-64 139.75 124-161.55z" fill="#dee6ed" stroke="#dee6ed" stroke-width="1.51" />
    <path d="m579-22.638 104-61.518 179-114.85z" fill="#97aec2" stroke="#97aec2" stroke-width="1.51" />
    <path d="m970 493.66 13 128.85 101-60.934z" fill="#f2f5f8" stroke="#f2f5f8" stroke-width="1.51" />
    <path d="m1074 47.586-62 115.59 78 6.3627z" fill="#a6bbcb" stroke="#a6bbcb" stroke-width="1.51" />
    <path d="m995 262.66-29-23.541 132 82.179z" fill="#bfcfda" stroke="#bfcfda" stroke-width="1.51" />
    <path d="m983 622.51 13 111.91 106-151.67z" fill="#ecf0f5" stroke="#ecf0f5" stroke-width="1.51" />
    <path d="m1084 561.58-101 60.934 119-39.763z" fill="#f1f4f7" stroke="#f1f4f7" stroke-width="1.51" />
    <path d="m981-7.2333 31 170.41 62-115.59z" fill="#a3b8c9" stroke="#a3b8c9" stroke-width="1.51" />
    <path d="m966 239.11 87 126.09 45-43.91z" fill="#ccd8e2" stroke="#ccd8e2" stroke-width="1.51" />
    <path d="m1053 365.2-83 128.46 114 67.917z" fill="#ebeff4" stroke="#ebeff4" stroke-width="1.51" />
    <path d="m1090 169.54-78-6.3627 78 53.363z" fill="#abbfce" stroke="#abbfce" stroke-width="1.51" />
    <path d="m1012 163.18-17 99.476 95-46.113z" fill="#aec2d0" stroke="#aec2d0" stroke-width="1.51" />
    <path d="m976 374.27-6 119.4 83-128.46z" fill="#e2e9ef" stroke="#e2e9ef" stroke-width="1.51" />
    <path d="m966 239.11 10 135.15 77-9.064z" fill="#d2dce5" stroke="#d2dce5" stroke-width="1.51" />
    <path d="m1061-68.188-80 60.954 93 54.819z" fill="#9db3c6" stroke="#9db3c6" stroke-width="1.51" />
    <path d="m996 734.43 4 139.61 64-139.75z" fill="#e1e9ee" stroke="#e1e9ee" stroke-width="1.51" />
    <path d="m1005-80.989-24 73.756 80-60.954z" fill="#99b1c4" stroke="#99b1c4" stroke-width="1.51" />
    <path d="m981-7.2333-68 54.96 99 115.45z" fill="#a3b9c9" stroke="#a3b9c9" stroke-width="1.51" />
    <path d="m612 772.79-138 40.957 217-29.278z" fill="#d8e2e9" stroke="#d8e2e9" stroke-width="1.51" />
    <path d="m908 549.92 62-56.261 6-119.4z" fill="#ebeff4" stroke="#ebeff4" stroke-width="1.51" />
    <path d="m870 354.58 38 195.35 68-175.66z" fill="#e4eaf0" stroke="#e4eaf0" stroke-width="1.51" />
    <path d="m921 262.02 45-22.906 29 23.541z" fill="#bacbd7" stroke="#bacbd7" stroke-width="1.51" />
    <path d="m996 734.43-123-84.209 127 223.82z" fill="#e0e8ee" stroke="#e0e8ee" stroke-width="1.51" />
    <path d="m873 650.22 47 217.78 80 6.0403z" fill="#dce4eb" stroke="#dce4eb" stroke-width="1.51" />
    <path d="m862-199.01 119 191.77 24-73.756z" fill="#98aec3" stroke="#98aec3" stroke-width="1.51" />
    <path d="m913 47.727-30-19.17 129 134.62z" fill="#a6bbcb" stroke="#a6bbcb" stroke-width="1.51" />
    <path d="m921 262.02 74 0.63555 17-99.476z" fill="#b0c3d1" stroke="#b0c3d1" stroke-width="1.51" />
    <path d="m883 28.557 38 233.46 91-98.84z" fill="#acc0cf" stroke="#acc0cf" stroke-width="1.51" />
    <path d="m983 622.51-101-80.322 114 192.23z" fill="#ebeff4" stroke="#ebeff4" stroke-width="1.51" />
    <path d="m966 239.11-71 55.212 81 79.94z" fill="#ccd8e2" stroke="#ccd8e2" stroke-width="1.51" />
    <path d="m862-199.01 51 246.73 68-54.96z" fill="#9cb2c5" stroke="#9cb2c5" stroke-width="1.51" />
    <path d="m882 542.19-9 108.02 123 84.209z" fill="#e6edf1" stroke="#e6edf1" stroke-width="1.51" />
    <path d="m908 549.92-26-7.7321 88-48.529z" fill="#f1f4f8" stroke="#f1f4f8" stroke-width="1.51" />
    <path d="m970 493.66-88 48.529 101 80.322z" fill="#eff2f6" stroke="#eff2f6" stroke-width="1.51" />
    <path d="m895 294.33-25 60.251 106 19.689z" fill="#d6dfe8" stroke="#d6dfe8" stroke-width="1.51" />
    <path d="m921 262.02-26 32.306 71-55.212z" fill="#c1d0db" stroke="#c1d0db" stroke-width="1.51" />
    <path d="m813 620.7 60 29.519 9-108.02z" fill="#e7edf2" stroke="#e7edf2" stroke-width="1.51" />
    <path d="m763 371.39 107-16.809 25-60.251z" fill="#d5dfe7" stroke="#d5dfe7" stroke-width="1.51" />
    <path d="m862-199.01-48 107.1 99 139.63z" fill="#9ab1c4" stroke="#9ab1c4" stroke-width="1.51" />
    <path d="m873 650.22-58 164.17 105 53.61z" fill="#dbe4eb" stroke="#dbe4eb" stroke-width="1.51" />
    <path d="m795 184.93 100 109.4 26-32.306z" fill="#c0cfdb" stroke="#c0cfdb" stroke-width="1.51" />
    <path d="m815 187.39-20-2.4611 126 77.092z" fill="#b7c8d6" stroke="#b7c8d6" stroke-width="1.51" />
    <path d="m883 28.557-68 158.83 106 74.631z" fill="#aec1d0" stroke="#aec1d0" stroke-width="1.51" />
    <path d="m773 480.32 109 61.869 26 7.7321z" fill="#f1f4f8" stroke="#f1f4f8" stroke-width="1.51" />
    <path d="m814-91.903-58 114.63 157 25.002z" fill="#9db3c6" stroke="#9db3c6" stroke-width="1.51" />
    <path d="m810 68.115 73-39.558 30 19.17z" fill="#a5bacb" stroke="#a5bacb" stroke-width="1.51" />
    <path d="m756 22.724 54 45.39 103-20.388z" fill="#a2b8c9" stroke="#a2b8c9" stroke-width="1.51" />
    <path d="m813 620.7 13 141.61 47-112.09z" fill="#e3eaef" stroke="#e3eaef" stroke-width="1.51" />
    <path d="m870 354.58-97 125.75 135 69.602z" fill="#eef2f6" stroke="#eef2f6" stroke-width="1.51" />
    <path d="m826 762.31-11 52.08 58-164.17z" fill="#dee6ec" stroke="#dee6ec" stroke-width="1.51" />
    <path d="m773 480.32 40 140.37 69-78.504z" fill="#edf1f5" stroke="#edf1f5" stroke-width="1.51" />
    <path d="m810 68.115 5 119.27 68-158.83z" fill="#aabecd" stroke="#aabecd" stroke-width="1.51" />
    <path d="m795 184.93-32 186.46 132-77.06z" fill="#c9d6e0" stroke="#c9d6e0" stroke-width="1.51" />
    <path d="m683-84.155 131-7.7481 48-107.1z" fill="#97aec2" stroke="#97aec2" stroke-width="1.51" />
    <path d="m763 371.39 10 108.94 97-125.75z" fill="#e5ebf0" stroke="#e5ebf0" stroke-width="1.51" />
    <path d="m763 371.39-72-7.912 82 116.85z" fill="#e2e9ee" stroke="#e2e9ee" stroke-width="1.51" />
    <path d="m773 480.32-46 40.012 86 100.36z" fill="#eff3f6" stroke="#eff3f6" stroke-width="1.51" />
    <path d="m810 68.115-110-18.495 115 137.77z" fill="#aabece" stroke="#aabece" stroke-width="1.51" />
    <path d="m813 620.7-100-19.846 113 161.46z" fill="#e5ecf1" stroke="#e5ecf1" stroke-width="1.51" />
    <path d="m691 784.47 124 29.915 11-52.08z" fill="#dbe4eb" stroke="#dbe4eb" stroke-width="1.51" />
    <path d="m713 600.85-22 183.62 135-22.165z" fill="#e0e8ed" stroke="#e0e8ed" stroke-width="1.51" />
    <path d="m715 236.88 48 134.51 32-186.46z" fill="#c9d6e0" stroke="#c9d6e0" stroke-width="1.51" />
    <path d="m756 22.724-56 26.895 110 18.495z" fill="#a5baca" stroke="#a5baca" stroke-width="1.51" />
    <path d="m727 520.34-14 80.515 100 19.846z" fill="#ebf0f4" stroke="#ebf0f4" stroke-width="1.51" />
    <path d="m706-96.936 50 119.66 58-114.63z" fill="#9cb3c5" stroke="#9cb3c5" stroke-width="1.51" />
    <path d="m692 158.25 103 26.676 20 2.4611z" fill="#b6c7d5" stroke="#b6c7d5" stroke-width="1.51" />
    <path d="m700 49.62-8 108.63 123 29.138z" fill="#adc1d0" stroke="#adc1d0" stroke-width="1.51" />
    <path d="m683-84.155 23-12.781 108 5.0329z" fill="#9ab1c4" stroke="#9ab1c4" stroke-width="1.51" />
    <path d="m691 363.47 36 156.86 46-40.012z" fill="#edf1f5" stroke="#edf1f5" stroke-width="1.51" />
    <path d="m692 158.25 23 78.626 80-51.949z" fill="#bdcdd9" stroke="#bdcdd9" stroke-width="1.51" />
    <path d="m-120-204.74 180 106.96 210-70.253z" fill="#94acc0" stroke="#94acc0" stroke-width="1.51" />
    <path d="m661 620.85 52-20 14-80.515z" fill="#edf2f5" stroke="#edf2f5" stroke-width="1.51" />
    <path d="m706-96.936-6 146.56 56-26.895z" fill="#a2b8c9" stroke="#a2b8c9" stroke-width="1.51" />
    <path d="m715 236.88-24 126.6 72 7.912z" fill="#d2dde5" stroke="#d2dde5" stroke-width="1.51" />
    <path d="m420 857-138-109.32 192 66.073z" fill="#d7e2e9" stroke="#d7e2e9" stroke-width="1.51" />
    <path d="m583 157.63 117-108.01 6-146.56z" fill="#a5baca" stroke="#a5baca" stroke-width="1.51" />
    <path d="m597-0.23371-14 157.86 123-254.56z" fill="#a0b6c8" stroke="#a0b6c8" stroke-width="1.51" />
    <path d="m612 772.79 79 11.679 22-183.62z" fill="#dde6ec" stroke="#dde6ec" stroke-width="1.51" />
    <path d="m577 765.65 35 7.1444 101-171.94z" fill="#e0e8ee" stroke="#e0e8ee" stroke-width="1.51" />
    <path d="m692 158.25-69 50.946 92 27.68z" fill="#bdcdd9" stroke="#bdcdd9" stroke-width="1.51" />
    <path d="m691 363.47-78 12.126 114 144.74z" fill="#e6ecf1" stroke="#e6ecf1" stroke-width="1.51" />
    <path d="m613 375.6 48 245.25 66-100.52z" fill="#f1f4f7" stroke="#f1f4f7" stroke-width="1.51" />
    <path d="m613 375.6-49 120.69 97 124.56z" fill="#ecf0f5" stroke="#ecf0f5" stroke-width="1.51" />
    <path d="m623 209.2-10 166.4 78-12.126z" fill="#d3dee6" stroke="#d3dee6" stroke-width="1.51" />
    <path d="m661 620.85-80 37.84 132-57.841z" fill="#ecf0f4" stroke="#ecf0f4" stroke-width="1.51" />
    <path d="m581 658.69-4 106.96 136-164.8z" fill="#e8edf2" stroke="#e8edf2" stroke-width="1.51" />
    <path d="m623 209.2 68 154.28 24-126.6z" fill="#cbd7e1" stroke="#cbd7e1" stroke-width="1.51" />
    <path d="m583 157.63 109 0.62313 8-108.63z" fill="#abbfce" stroke="#abbfce" stroke-width="1.51" />
    <path d="m683-84.155-86 83.922 109-96.703z" fill="#9cb2c5" stroke="#9cb2c5" stroke-width="1.51" />
    <path d="m608 212.83 15-3.6365 69-50.946z" fill="#b9cad7" stroke="#b9cad7" stroke-width="1.51" />
    <path d="m583 157.63 25 55.205 84-54.582z" fill="#aec1d0" stroke="#aec1d0" stroke-width="1.51" />
    <path d="m579-22.638 18 22.404 86-83.922z" fill="#99b0c4" stroke="#99b0c4" stroke-width="1.51" />
    <path d="m564 496.29 17 162.4 80-37.84z" fill="#f1f4f8" stroke="#f1f4f8" stroke-width="1.51" />
    <path d="m508 34.623 75 123.01 14-157.86z" fill="#a1b6c8" stroke="#a1b6c8" stroke-width="1.51" />
    <path d="m583 157.63-127-56.415 152 111.62z" fill="#adc0d0" stroke="#adc0d0" stroke-width="1.51" />
    <path d="m608 212.83-143 7.9537 158-11.59z" fill="#bdcdd9" stroke="#bdcdd9" stroke-width="1.51" />
    <path d="m465 220.79 14 180.76 144-192.35z" fill="#c8d5e0" stroke="#c8d5e0" stroke-width="1.51" />
    <path d="m479 401.55 134-25.945 10-166.4z" fill="#d2dde5" stroke="#d2dde5" stroke-width="1.51" />
    <path d="m484 126.65-28-25.437 127 56.415z" fill="#a9bdcd" stroke="#a9bdcd" stroke-width="1.51" />
    <path d="m577 765.65-103 48.101 138-40.957z" fill="#dce4eb" stroke="#dce4eb" stroke-width="1.51" />
    <path d="m479 401.55 85 94.749 49-120.69z" fill="#e0e7ee" stroke="#e0e7ee" stroke-width="1.51" />
    <path d="m564 496.29-91 1.7816 108 160.62z" fill="#f3f5f8" stroke="#f3f5f8" stroke-width="1.51" />
    <path d="m491 725.21 86 40.44 4-106.96z" fill="#e7edf2" stroke="#e7edf2" stroke-width="1.51" />
    <path d="m456 101.21 9 119.57 143-7.9537z" fill="#b7c8d6" stroke="#b7c8d6" stroke-width="1.51" />
    <path d="m579-22.638-71 57.26 89-34.856z" fill="#9bb2c5" stroke="#9bb2c5" stroke-width="1.51" />
    <path d="m491 725.21-17 88.541 103-48.101z" fill="#e0e7ee" stroke="#e0e7ee" stroke-width="1.51" />
    <path d="m504-42.754 4 77.377 71-57.26z" fill="#9ab0c4" stroke="#9ab0c4" stroke-width="1.51" />
    <path d="m473 498.08-16 37.667 124 122.95z" fill="#eff2f6" stroke="#eff2f6" stroke-width="1.51" />
    <path d="m457 535.74 34 189.47 90-66.519z" fill="#eaeff4" stroke="#eaeff4" stroke-width="1.51" />
    <path d="m508 34.623-24 92.028 99 30.978z" fill="#a4b9ca" stroke="#a4b9ca" stroke-width="1.51" />
    <path d="m479 401.55-6 96.531 91-1.7816z" fill="#e7edf2" stroke="#e7edf2" stroke-width="1.51" />
    <path d="m154 832.45-90-16.157 218-68.614z" fill="#d9e2ea" stroke="#d9e2ea" stroke-width="1.51" />
    <path d="m401 744.88 19 112.12 54-43.247z" fill="#dbe4ea" stroke="#dbe4ea" stroke-width="1.51" />
    <path d="m424 459.36 49 38.719 6-96.531z" fill="#e4eaf0" stroke="#e4eaf0" stroke-width="1.51" />
    <path d="m401 744.88 73 68.871 17-88.541z" fill="#dfe7ed" stroke="#dfe7ed" stroke-width="1.51" />
    <path d="m425 122.28 59 4.37 24-92.028z" fill="#a4b9ca" stroke="#a4b9ca" stroke-width="1.51" />
    <path d="m385-54.015 40 176.29 83-87.658z" fill="#a1b7c8" stroke="#a1b7c8" stroke-width="1.51" />
    <path d="m504-42.754-95-29.302 99 106.68z" fill="#99b0c3" stroke="#99b0c3" stroke-width="1.51" />
    <path d="m409-72.056-24 18.042 123 88.637z" fill="#9cb2c5" stroke="#9cb2c5" stroke-width="1.51" />
    <path d="m424 611.36 33-75.615 16-37.667z" fill="#eff2f6" stroke="#eff2f6" stroke-width="1.51" />
    <path d="m465 220.79-92 11.428 106 169.33z" fill="#cbd8e1" stroke="#cbd8e1" stroke-width="1.51" />
    <path d="m456 101.21-74 27.979 83 91.595z" fill="#b4c6d3" stroke="#b4c6d3" stroke-width="1.51" />
    <path d="m424 459.36-17 84.237 66-45.519z" fill="#ecf0f4" stroke="#ecf0f4" stroke-width="1.51" />
    <path d="m425 122.28 31-21.067 28 25.437z" fill="#a9bdcd" stroke="#a9bdcd" stroke-width="1.51" />
    <path d="m457 535.74-56 209.14 90-19.67z" fill="#e6ecf1" stroke="#e6ecf1" stroke-width="1.51" />
    <path d="m373 232.22 51 227.14 55-57.812z" fill="#d6e0e7" stroke="#d6e0e7" stroke-width="1.51" />
    <path d="m407 543.59 17 67.763 49-113.28z" fill="#f2f5f7" stroke="#f2f5f7" stroke-width="1.51" />
    <path d="m424 611.36-23 133.52 56-209.14z" fill="#e9eef2" stroke="#e9eef2" stroke-width="1.51" />
    <path d="m382 129.19-9 103.02 92-11.428z" fill="#beced9" stroke="#beced9" stroke-width="1.51" />
    <path d="m425 122.28-43 6.9123 74-27.979z" fill="#acc0cf" stroke="#acc0cf" stroke-width="1.51" />
    <path d="m322 598.52 79 146.36 23-133.52z" fill="#e9eef3" stroke="#e9eef3" stroke-width="1.51" />
    <path d="m322 598.52-47 45.309 126 101.05z" fill="#e5ecf1" stroke="#e5ecf1" stroke-width="1.51" />
    <path d="m401 744.88-119 2.7984 138 109.32z" fill="#dae4ea" stroke="#dae4ea" stroke-width="1.51" />
    <path d="m288 346.24 119 197.36 17-84.237z" fill="#e6ecf1" stroke="#e6ecf1" stroke-width="1.51" />
    <path d="m373 232.22-85 114.02 136 113.12z" fill="#d9e2e9" stroke="#d9e2e9" stroke-width="1.51" />
    <path d="m407 543.59-85 54.925 102 12.837z" fill="#eff3f6" stroke="#eff3f6" stroke-width="1.51" />
    <path d="m385-54.015-66 146.03 106 30.261z" fill="#a3b9c9" stroke="#a3b9c9" stroke-width="1.51" />
    <path d="m319 92.02 63 37.173 43-6.9123z" fill="#a9bdcd" stroke="#a9bdcd" stroke-width="1.51" />
    <path d="m270-168.04 115 114.03 24-18.042z" fill="#98afc3" stroke="#98afc3" stroke-width="1.51" />
    <path d="m300 234.44 73-2.2214 9-103.02z" fill="#c0cfda" stroke="#c0cfda" stroke-width="1.51" />
    <path d="m270-168.04 27 109.53 88 4.4958z" fill="#9bb2c5" stroke="#9bb2c5" stroke-width="1.51" />
    <path d="m275 643.83 7 103.85 119-2.7984z" fill="#dee6ec" stroke="#dee6ec" stroke-width="1.51" />
    <path d="m288 346.24 34 252.28 85-54.925z" fill="#f0f4f7" stroke="#f0f4f7" stroke-width="1.51" />
    <path d="m288 346.24-35 152.09 69 100.19z" fill="#edf1f5" stroke="#edf1f5" stroke-width="1.51" />
    <path d="m300 234.44-12 111.8 85-114.02z" fill="#d0dbe4" stroke="#d0dbe4" stroke-width="1.51" />
    <path d="m319 92.02-63 147.7 126-110.53z" fill="#acc0cf" stroke="#acc0cf" stroke-width="1.51" />
    <path d="m256 239.72 44-5.2877 82-105.24z" fill="#b9c9d6" stroke="#b9c9d6" stroke-width="1.51" />
    <path d="m297-58.51 22 150.53 66-146.03z" fill="#a1b7c8" stroke="#a1b7c8" stroke-width="1.51" />
    <path d="m270-168.04-47 44.969 74 64.561z" fill="#99b0c3" stroke="#99b0c3" stroke-width="1.51" />
    <path d="m223-123.07-14 53.485 88 11.075z" fill="#9cb3c5" stroke="#9cb3c5" stroke-width="1.51" />
    <path d="m226 402.94 62-56.702 12-111.8z" fill="#d7e0e8" stroke="#d7e0e8" stroke-width="1.51" />
    <path d="m206 6.0637 50 233.66 63-147.7z" fill="#a9bdcd" stroke="#a9bdcd" stroke-width="1.51" />
    <path d="m172 637.09 103 6.7351 47-45.309z" fill="#e9eef3" stroke="#e9eef3" stroke-width="1.51" />
    <path d="m253 498.33-81 138.77 150-38.574z" fill="#f0f3f7" stroke="#f0f3f7" stroke-width="1.51" />
    <path d="m297-58.51-91 64.574 113 85.956z" fill="#a3b8c9" stroke="#a3b8c9" stroke-width="1.51" />
    <path d="m275 643.83-99 111.82 106-7.9662z" fill="#dee6ec" stroke="#dee6ec" stroke-width="1.51" />
    <path d="m209-69.586-3 75.649 91-64.574z" fill="#a1b7c8" stroke="#a1b7c8" stroke-width="1.51" />
    <path d="m256 239.72-87 148.54 131-153.83z" fill="#c2d1dc" stroke="#c2d1dc" stroke-width="1.51" />
    <path d="m169 388.27 57 14.675 74-168.5z" fill="#d1dbe4" stroke="#d1dbe4" stroke-width="1.51" />
    <path d="m167 285.46 2 102.81 87-148.54z" fill="#bdcdd9" stroke="#bdcdd9" stroke-width="1.51" />
    <path d="m176 755.65-22 76.805 128-84.771z" fill="#dbe4eb" stroke="#dbe4eb" stroke-width="1.51" />
    <path d="m164 538.71 8 98.385 81-138.77z" fill="#f2f4f8" stroke="#f2f4f8" stroke-width="1.51" />
    <path d="m60-97.787 163-25.284 47-44.969z" fill="#95adc1" stroke="#95adc1" stroke-width="1.51" />
    <path d="m226 402.94 27 95.385 35-152.09z" fill="#e2e9ef" stroke="#e2e9ef" stroke-width="1.51" />
    <path d="m172 637.09 4 118.55 99-111.82z" fill="#e5ebf0" stroke="#e5ebf0" stroke-width="1.51" />
    <path d="m206 6.0637-39 279.4 89-45.735z" fill="#adc1d0" stroke="#adc1d0" stroke-width="1.51" />
    <path d="m110 98.902 57 186.56 39-279.4z" fill="#aabfce" stroke="#aabfce" stroke-width="1.51" />
    <path d="m226 402.94-62 135.77 89-40.384z" fill="#e6ecf1" stroke="#e6ecf1" stroke-width="1.51" />
    <path d="m80 49.701 129-119.29 14-53.485z" fill="#9bb2c5" stroke="#9bb2c5" stroke-width="1.51" />
    <path d="m169 388.27-5 150.44 62-135.77z" fill="#dde5eb" stroke="#dde5eb" stroke-width="1.51" />
    <path d="m76 490.29 88 48.422 5-150.44z" fill="#dde5ec" stroke="#dde5ec" stroke-width="1.51" />
    <path d="m60-97.787 20 147.49 143-172.77z" fill="#98b0c3" stroke="#98b0c3" stroke-width="1.51" />
    <path d="m80 49.701 30 49.201 96-92.839z" fill="#a3b9ca" stroke="#a3b9ca" stroke-width="1.51" />
    <path d="m80 49.701 126-43.637 3-75.649z" fill="#a0b6c8" stroke="#a0b6c8" stroke-width="1.51" />
    <path d="m164 538.71-55 16.065 63 82.32z" fill="#eff3f6" stroke="#eff3f6" stroke-width="1.51" />
    <path d="m172 637.09-63-82.32 67 200.87z" fill="#e8eef3" stroke="#e8eef3" stroke-width="1.51" />
    <path d="m53 478.2 56 76.571 55-16.065z" fill="#f2f5f8" stroke="#f2f5f8" stroke-width="1.51" />
    <path d="m110 98.902-53 96.562 110 89.995z" fill="#aec2d1" stroke="#aec2d1" stroke-width="1.51" />
    <path d="m86 390.48-10 99.806 93-102.02z" fill="#d2dde5" stroke="#d2dde5" stroke-width="1.51" />
    <path d="m167 285.46-81 105.02 83-2.2155z" fill="#c5d3de" stroke="#c5d3de" stroke-width="1.51" />
    <path d="m53 683.2 101 149.25 22-76.805z" fill="#dee7ed" stroke="#dee7ed" stroke-width="1.51" />
    <path d="m109 554.77-56 128.43 123 72.443z" fill="#e5ecf0" stroke="#e5ecf0" stroke-width="1.51" />
    <path d="m53 683.2 11 133.09 90 16.157z" fill="#dce5ec" stroke="#dce5ec" stroke-width="1.51" />
    <path d="m57 195.46 29 195.02 81-105.02z" fill="#bbccd8" stroke="#bbccd8" stroke-width="1.51" />
    <path d="m76 490.29-23-12.084 111 60.506z" fill="#e9edf3" stroke="#e9edf3" stroke-width="1.51" />
    <path d="m-120-204.74 108 166.84 72-59.887z" fill="#95acc1" stroke="#95acc1" stroke-width="1.51" />
    <path d="m-32-35.519-1 76.204 113 9.0156z" fill="#a0b6c7" stroke="#a0b6c7" stroke-width="1.51" />
    <path d="m9 429.32 67 60.966 10-99.806z" fill="#d6dfe7" stroke="#d6dfe7" stroke-width="1.51" />
    <path d="m57 195.46-41 107.81 70 87.21z" fill="#bfcfdb" stroke="#bfcfdb" stroke-width="1.51" />
    <path d="m53 478.2-42 144.88 98-68.304z" fill="#eff3f6" stroke="#eff3f6" stroke-width="1.51" />
    <path d="m11 623.08 42 60.124 56-128.43z" fill="#e9eef3" stroke="#e9eef3" stroke-width="1.51" />
    <path d="m80 49.701-113-9.0156 143 58.217z" fill="#a3b9ca" stroke="#a3b9ca" stroke-width="1.51" />
    <path d="m-33 40.685 90 154.78 53-96.562z" fill="#a9becd" stroke="#a9becd" stroke-width="1.51" />
    <path d="m-8 289.31 24 13.96 41-107.81z" fill="#b9cad6" stroke="#b9cad6" stroke-width="1.51" />
    <path d="m53 683.2-29 78.224 40 54.867z" fill="#dce5ec" stroke="#dce5ec" stroke-width="1.51" />
    <path d="m60-97.787-72 59.887 92 87.601z" fill="#98b0c3" stroke="#98b0c3" stroke-width="1.51" />
    <path d="m16 303.27-7 126.05 77-38.84z" fill="#ccd8e2" stroke="#ccd8e2" stroke-width="1.51" />
    <path d="m-16 526.65 69-48.446 23 12.084z" fill="#e9eef2" stroke="#e9eef2" stroke-width="1.51" />
    <path d="m-12-37.9-20 2.3809 112 85.22z" fill="#9bb2c4" stroke="#9bb2c4" stroke-width="1.51" />
    <path d="m9 429.32-25 97.328 92-36.362z" fill="#e1e8ee" stroke="#e1e8ee" stroke-width="1.51" />
    <path d="m-9 775.21 33-13.784 29-78.224z" fill="#dfe7ed" stroke="#dfe7ed" stroke-width="1.51" />
    <path d="m11 623.08-20 152.13 62-92.008z" fill="#e5ecf0" stroke="#e5ecf0" stroke-width="1.51" />
    <path d="m-16 526.65 27 96.429 42-144.88z" fill="#f1f5f7" stroke="#f1f5f7" stroke-width="1.51" />
    <path d="m-33 40.685 25 248.63 65-93.847z" fill="#acc0cf" stroke="#acc0cf" stroke-width="1.51" />
    <path d="m-33 40.685-91 52.283 116 196.34z" fill="#abbfcf" stroke="#abbfcf" stroke-width="1.51" />
    <path d="m-141 249.3 53 212.74 97-32.716z" fill="#d3dde6" stroke="#d3dde6" stroke-width="1.51" />
    <path d="m-88 462.04 72 64.612 25-97.328z" fill="#e1e7ed" stroke="#e1e7ed" stroke-width="1.51" />
    <path d="m-125 505.71 116 269.5 20-152.13z" fill="#e8edf2" stroke="#e8edf2" stroke-width="1.51" />
    <path d="m-141 249.3 150 180.02 7-126.05z" fill="#cbd7e1" stroke="#cbd7e1" stroke-width="1.51" />
    <path d="m-9 775.21-84 29.386 117-43.171z" fill="#dde5eb" stroke="#dde5eb" stroke-width="1.51" />
    <path d="m-125 505.71 10 173.28 106 96.226z" fill="#e3eaef" stroke="#e3eaef" stroke-width="1.51" />
    <path d="m-16 526.65-109-20.941 136 117.37z" fill="#eff2f6" stroke="#eff2f6" stroke-width="1.51" />
    <path d="m-8 289.31-133-40.014 157 53.974z" fill="#c0cfdb" stroke="#c0cfdb" stroke-width="1.51" />
    <path d="m-119 425.09-6 80.621 109 20.941z" fill="#f1f4f7" stroke="#f1f4f7" stroke-width="1.51" />
    <path d="m-119-62.913 87 27.394 20-2.3809z" fill="#9bb2c5" stroke="#9bb2c5" stroke-width="1.51" />
    <path d="m-124 92.968-17 156.33 133 40.014z" fill="#b8c9d6" stroke="#b8c9d6" stroke-width="1.51" />
    <path d="m-115 678.98 22 125.61 84-29.386z" fill="#dee6ec" stroke="#dee6ec" stroke-width="1.51" />
    <path d="m-88 462.04-31-36.95 103 101.56z" fill="#e7edf2" stroke="#e7edf2" stroke-width="1.51" />
    <path d="m-120-204.74 1 141.83 107 25.013z" fill="#98afc3" stroke="#98afc3" stroke-width="1.51" />
    <path d="m-120-1.7427 87 42.428 1-76.204z" fill="#a2b8c9" stroke="#a2b8c9" stroke-width="1.51" />
    <path d="m-120-1.7427-4 94.711 91-52.283z" fill="#a6bbcc" stroke="#a6bbcc" stroke-width="1.51" />
    <path d="m-119-62.913-1 61.17 88-33.776z" fill="#a0b6c7" stroke="#a0b6c7" stroke-width="1.51" />
    <path d="m-141 249.3 22 175.79 31 36.95z" fill="#dae3ea" stroke="#dae3ea" stroke-width="1.51" />
    <path d="m-141 249.3 21-251.04 1-61.17z" fill="#a8bdcc" stroke="#a8bdcc" stroke-width="1.51" />
    <path d="m-120-204.74-21 454.04 22-312.21z" fill="#a3b8c9" stroke="#a3b8c9" stroke-width="1.51" />
    <path d="m-141 249.3 16 256.41 6-80.621z" fill="#e7ecf2" stroke="#e7ecf2" stroke-width="1.51" />
    <path d="m-141 249.3 17-156.33 4-94.711z" fill="#adc1d0" stroke="#adc1d0" stroke-width="1.51" />
</svg>